<svg width="24" height="24" viewBox="0 0 24 24" fill="none" xmlns="http://www.w3.org/2000/svg">
<path d="M12.0666 23.27C14.9632 23.2421 17.831 22.0422 19.8931 20.0043C22.3422 17.5841 23.6036 14.0029 23.1636 10.5843C22.4096 4.72548 17.5936 0.75 11.9943 0.75C7.7404 0.75 3.60564 3.4111 1.7922 7.26994C0.403822 10.2242 0.401382 13.7907 1.7922 16.7503C3.59278 20.5818 7.65957 23.2289 11.9219 23.27C11.9702 23.2702 12.0184 23.2702 12.0666 23.27ZM11.934 21.3933C7.60739 21.3516 3.57083 18.0059 2.76826 13.7163C2.20244 10.692 3.2706 7.41928 5.4956 5.27164C8.09378 2.76383 12.1768 1.92359 15.5718 3.34518C18.6097 4.61729 20.8832 7.57026 21.3022 10.824C21.6613 13.6127 20.6605 16.5355 18.6938 18.5488C16.9688 20.3147 14.5496 21.3692 12.0546 21.3933C12.0144 21.3934 11.9742 21.3934 11.934 21.3933Z" fill="#04B6C1" stroke="#04B6C1" stroke-width="0.10009" stroke-miterlimit="2" stroke-linejoin="round"/>
<path d="M12 18C15.3137 18 18 15.3137 18 12C18 8.68629 15.3137 6 12 6C8.68629 6 6 8.68629 6 12C6 15.3137 8.68629 18 12 18Z" fill="#04B6C1" stroke="#04B6C1" stroke-width="1.20036" stroke-miterlimit="2" stroke-linejoin="round"/>
</svg>
